<?xml version="1.0" standalone="yes"?>

<svg version="1.1" viewBox="0.0 0.0 866.0 323.0" fill="none" stroke="none" stroke-linecap="square" stroke-miterlimit="10" xmlns="http://www.w3.org/2000/svg" xmlns:xlink="http://www.w3.org/1999/xlink"><clipPath id="p.0"><path d="m0 0l866.0 0l0 323.0l-866.0 0l0 -323.0z" clip-rule="nonzero"></path></clipPath><g clip-path="url(#p.0)"><path fill="#000000" fill-opacity="0.0" d="m0 0l866.58795 0l0 323.92126l-866.58795 0z" fill-rule="nonzero"></path><path fill="#000000" fill-opacity="0.0" d="m213.99738 159.95801l442.2047 0l0 116.724396l-442.2047 0z" fill-rule="nonzero"></path><path fill="#000000" d="m229.40363 245.758l0 -57.265625l7.578125 0l0 23.515625l29.765625 0l0 -23.515625l7.578125 0l0 57.265625l-7.578125 0l0 -27.0l-29.765625 0l0 27.0l-7.578125 0zm85.03906 -13.359375l7.265625 0.890625q-1.71875 6.375 -6.375 9.890625q-4.640625 3.515625 -11.859375 3.515625q-9.109375 0 -14.4375 -5.609375q-5.328125 -5.609375 -5.328125 -15.71875q0 -10.46875 5.390625 -16.25q5.390625 -5.78125 13.984375 -5.78125q8.3125 0 13.578125 5.671875q5.28125 5.65625 5.28125 15.921875q0 0.625 -0.03125 1.875l-30.9375 0q0.390625 6.84375 3.859375 10.484375q3.484375 3.625 8.671875 3.625q3.875 0 6.609375 -2.03125q2.734375 -2.03125 4.328125 -6.484375zm-23.078125 -11.375l23.15625 0q-0.46875 -5.234375 -2.65625 -7.84375q-3.359375 -4.0625 -8.703125 -4.0625q-4.84375 0 -8.15625 3.25q-3.296875 3.234375 -3.640625 8.65625zm39.023438 24.734375l0 -57.265625l7.03125 0l0 57.265625l-7.03125 0zm17.773438 0l0 -57.265625l7.03125 0l0 57.265625l-7.03125 0zm15.3046875 -20.75q0 -11.515625 6.40625 -17.0625q5.359375 -4.609375 13.046875 -4.609375q8.5625 0 13.984375 5.609375q5.4375 5.59375 5.4375 15.484375q0 8.0 -2.40625 12.59375q-2.40625 4.59375 -7.0 7.140625q-4.578125 2.53125 -10.015625 2.53125q-8.703125 0 -14.078125 -5.578125q-5.375 -5.59375 -5.375 -16.109375zm7.234375 0q0 7.96875 3.46875 11.9375q3.484375 3.96875 8.75 3.96875q5.234375 0 8.703125 -3.984375q3.484375 -3.984375 3.484375 -12.15625q0 -7.6875 -3.5 -11.65625q-3.484375 -3.96875 -8.6875 -3.96875q-5.265625 0 -8.75 3.953125q-3.46875 3.9375 -3.46875 11.90625zm73.0 20.75l-15.1875 -57.265625l7.765625 0l8.71875 37.53125q1.40625 5.90625 2.421875 11.71875q2.1875 -9.171875 2.578125 -10.578125l10.890625 -38.671875l9.140625 0l8.203125 28.984375q3.09375 10.78125 4.453125 20.265625q1.09375 -5.421875 2.859375 -12.453125l8.984375 -36.796875l7.609375 0l-15.703125 57.265625l-7.296875 0l-12.078125 -43.640625q-1.515625 -5.46875 -1.796875 -6.71875q-0.890625 3.953125 -1.671875 6.71875l-12.15625 43.640625l-7.734375 0zm61.992188 -20.75q0 -11.515625 6.40625 -17.0625q5.359375 -4.609375 13.046875 -4.609375q8.5625 0 13.984375 5.609375q5.4375 5.59375 5.4375 15.484375q0 8.0 -2.40625 12.59375q-2.40625 4.59375 -7.0 7.140625q-4.578125 2.53125 -10.015625 2.53125q-8.703125 0 -14.078125 -5.578125q-5.375 -5.59375 -5.375 -16.109375zm7.234375 0q0 7.96875 3.46875 11.9375q3.484375 3.96875 8.75 3.96875q5.234375 0 8.703125 -3.984375q3.484375 -3.984375 3.484375 -12.15625q0 -7.6875 -3.5 -11.65625q-3.484375 -3.96875 -8.6875 -3.96875q-5.265625 0 -8.75 3.953125q-3.46875 3.9375 -3.46875 11.90625zm39.804688 20.75l0 -41.484375l6.328125 0l0 6.28125q2.421875 -4.40625 4.46875 -5.8125q2.046875 -1.40625 4.515625 -1.40625q3.546875 0 7.21875 2.265625l-2.421875 6.515625q-2.578125 -1.515625 -5.15625 -1.515625q-2.296875 0 -4.140625 1.390625q-1.828125 1.375 -2.609375 3.84375q-1.171875 3.75 -1.171875 8.203125l0 21.71875l-7.03125 0zm26.5625 0l0 -57.265625l7.03125 0l0 57.265625l-7.03125 0zm44.835938 0l0 -5.234375q-3.9375 6.171875 -11.59375 6.171875q-4.96875 0 -9.125 -2.734375q-4.15625 -2.734375 -6.453125 -7.640625q-2.28125 -4.90625 -2.28125 -11.265625q0 -6.21875 2.0625 -11.265625q2.078125 -5.0625 6.21875 -7.75q4.140625 -2.703125 9.265625 -2.703125q3.75 0 6.671875 1.578125q2.9375 1.578125 4.765625 4.125l0 -20.546875l7.0 0l0 57.265625l-6.53125 0zm-22.21875 -20.703125q0 7.96875 3.359375 11.921875q3.359375 3.9375 7.921875 3.9375q4.609375 0 7.828125 -3.765625q3.234375 -3.78125 3.234375 -11.515625q0 -8.515625 -3.28125 -12.5q-3.28125 -3.984375 -8.09375 -3.984375q-4.6875 0 -7.828125 3.828125q-3.140625 3.828125 -3.140625 12.078125z" fill-rule="nonzero"></path><path fill="#000000" fill-opacity="0.0" d="m112.091866 112.28609l646.01575 0l0 197.25984l-646.01575 0z" fill-rule="nonzero"></path><path stroke="#000000" stroke-width="8.0" stroke-linejoin="round" stroke-linecap="butt" d="m112.091866 112.28609l646.01575 0l0 197.25984l-646.01575 0z" fill-rule="nonzero"></path><path fill="#000000" fill-opacity="0.0" d="m213.99738 171.4357l429.03937 0l0 90.4252l-429.03937 0z" fill-rule="nonzero"></path><path stroke="#00ffff" stroke-width="3.0" stroke-linejoin="round" stroke-linecap="butt" stroke-dasharray="3.0,9.0" d="m213.99738 171.4357l429.03937 0l0 90.4252l-429.03937 0z" fill-rule="nonzero"></path><path fill="#000000" fill-opacity="0.0" d="m5.2309713 30.094488l853.1654 0" fill-rule="nonzero"></path><path stroke="#000000" stroke-width="2.0" stroke-linejoin="round" stroke-linecap="butt" d="m5.2309713 30.094488l853.1654 0" fill-rule="nonzero"></path><path fill="#000000" fill-opacity="0.0" d="m857.6288 30.094488l0 32.88189" fill-rule="nonzero"></path><path stroke="#000000" stroke-width="2.0" stroke-linejoin="round" stroke-linecap="butt" d="m857.6288 30.094488l0 32.88189" fill-rule="nonzero"></path><path fill="#000000" fill-opacity="0.0" d="m762.9283 30.094488l0 32.88189" fill-rule="nonzero"></path><path stroke="#000000" stroke-width="2.0" stroke-linejoin="round" stroke-linecap="butt" d="m762.9283 30.094488l0 32.88189" fill-rule="nonzero"></path><path fill="#000000" fill-opacity="0.0" d="m643.58716 30.094488l0 32.88189" fill-rule="nonzero"></path><path stroke="#000000" stroke-width="2.0" stroke-linejoin="round" stroke-linecap="butt" d="m643.58716 30.094488l0 32.88189" fill-rule="nonzero"></path><path fill="#000000" fill-opacity="0.0" d="m213.23097 30.094488l0 32.88189" fill-rule="nonzero"></path><path stroke="#000000" stroke-width="2.0" stroke-linejoin="round" stroke-linecap="butt" d="m213.23097 30.094488l0 32.88189" fill-rule="nonzero"></path><path fill="#000000" fill-opacity="0.0" d="m107.91326 30.094488l0 32.88189" fill-rule="nonzero"></path><path stroke="#000000" stroke-width="2.0" stroke-linejoin="round" stroke-linecap="butt" d="m107.91326 30.094488l0 32.88189" fill-rule="nonzero"></path><path fill="#000000" fill-opacity="0.0" d="m5.997492 30.094488l0 32.88189" fill-rule="nonzero"></path><path stroke="#000000" stroke-width="2.0" stroke-linejoin="round" stroke-linecap="butt" d="m5.997492 30.094488l0 32.88189" fill-rule="nonzero"></path><path fill="#000000" fill-opacity="0.0" d="m767.88684 30.094488l84.66138 0l0 32.88189l-84.66138 0z" fill-rule="nonzero"></path><path fill="#000000" d="m778.02747 54.45449l0 -11.453125l3.453125 0l2.078125 7.8125l2.0625 -7.8125l3.46875 0l0 11.453125l-2.15625 0l0 -9.015625l-2.265625 9.015625l-2.234375 0l-2.265625 -9.015625l0 9.015625l-2.140625 0zm23.6875 0l-2.515625 0l-1.0 -2.609375l-4.578125 0l-0.953125 2.609375l-2.453125 0l4.46875 -11.453125l2.4375 0l4.59375 11.453125zm-4.265625 -4.53125l-1.578125 -4.25l-1.546875 4.25l3.125 0zm5.4921875 4.53125l0 -11.453125l4.875 0q1.828125 0 2.65625 0.3125q0.84375 0.296875 1.34375 1.09375q0.5 0.78125 0.5 1.796875q0 1.296875 -0.765625 2.140625q-0.75 0.828125 -2.265625 1.046875q0.75 0.4375 1.234375 0.96875q0.5 0.515625 1.328125 1.859375l1.390625 2.234375l-2.765625 0l-1.671875 -2.5q-0.890625 -1.328125 -1.21875 -1.671875q-0.328125 -0.359375 -0.703125 -0.484375q-0.359375 -0.125 -1.15625 -0.125l-0.46875 0l0 4.78125l-2.3125 0zm2.3125 -6.609375l1.71875 0q1.65625 0 2.0625 -0.140625q0.421875 -0.140625 0.65625 -0.484375q0.234375 -0.34375 0.234375 -0.859375q0 -0.578125 -0.3125 -0.9375q-0.296875 -0.359375 -0.859375 -0.453125q-0.28125 -0.03125 -1.6875 -0.03125l-1.8125 0l0 2.90625zm14.5703125 2.390625l0 -1.921875l4.984375 0l0 4.5625q-0.734375 0.703125 -2.109375 1.25q-1.375 0.53125 -2.796875 0.53125q-1.796875 0 -3.140625 -0.75q-1.328125 -0.765625 -2.0 -2.171875q-0.671875 -1.40625 -0.671875 -3.046875q0 -1.796875 0.75 -3.1875q0.75 -1.390625 2.203125 -2.125q1.09375 -0.578125 2.734375 -0.578125q2.140625 0 3.328125 0.90625q1.203125 0.890625 1.546875 2.46875l-2.296875 0.421875q-0.234375 -0.84375 -0.90625 -1.328125q-0.671875 -0.484375 -1.671875 -0.484375q-1.515625 0 -2.40625 0.96875q-0.890625 0.953125 -0.890625 2.84375q0 2.03125 0.90625 3.0625q0.90625 1.015625 2.375 1.015625q0.71875 0 1.453125 -0.28125q0.734375 -0.296875 1.25 -0.703125l0 -1.453125l-2.640625 0zm7.0390625 4.21875l0 -11.453125l2.3125 0l0 11.453125l-2.3125 0zm4.5390625 0l0 -11.453125l2.25 0l4.6875 7.640625l0 -7.640625l2.15625 0l0 11.453125l-2.328125 0l-4.609375 -7.46875l0 7.46875l-2.15625 0z" fill-rule="nonzero"></path><path fill="#000000" fill-opacity="0.0" d="m16.742899 30.094488l84.661415 0l0 32.88189l-84.661415 0z" fill-rule="nonzero"></path><path fill="#000000" d="m26.883524 54.45449l0 -11.453125l3.453125 0l2.078123 7.8125l2.0625 -7.8125l3.46875 0l0 11.453125l-2.15625 0l0 -9.015625l-2.265625 9.015625l-2.234373 0l-2.265625 -9.015625l0 9.015625l-2.140625 0zm23.687498 0l-2.515625 0l-1.0 -2.609375l-4.578125 0l-0.953125 2.609375l-2.453125 0l4.46875 -11.453125l2.4375 0l4.59375 11.453125zm-4.265625 -4.53125l-1.578125 -4.25l-1.546875 4.25l3.125 0zm5.4921875 4.53125l0 -11.453125l4.875 0q1.828125 0 2.65625 0.3125q0.84375 0.296875 1.34375 1.09375q0.5 0.78125 0.5 1.796875q0 1.296875 -0.765625 2.140625q-0.75 0.828125 -2.265625 1.046875q0.75 0.4375 1.234375 0.96875q0.5 0.515625 1.328125 1.859375l1.390625 2.234375l-2.765625 0l-1.671875 -2.5q-0.890625 -1.328125 -1.21875 -1.671875q-0.328125 -0.359375 -0.703125 -0.484375q-0.359375 -0.125 -1.15625 -0.125l-0.46875 0l0 4.78125l-2.3125 0zm2.3125 -6.609375l1.71875 0q1.65625 0 2.0625 -0.140625q0.421875 -0.140625 0.65625 -0.484375q0.234375 -0.34375 0.234375 -0.859375q0 -0.578125 -0.3125 -0.9375q-0.296875 -0.359375 -0.859375 -0.453125q-0.28125 -0.03125 -1.6875 -0.03125l-1.8125 0l0 2.90625zm14.5703125 2.390625l0 -1.921875l4.984375 0l0 4.5625q-0.734375 0.703125 -2.109375 1.25q-1.375 0.53125 -2.796875 0.53125q-1.796875 0 -3.140625 -0.75q-1.328125 -0.765625 -2.0 -2.171875q-0.671875 -1.40625 -0.671875 -3.046875q0 -1.796875 0.75 -3.1875q0.75 -1.390625 2.203125 -2.125q1.09375 -0.578125 2.734375 -0.578125q2.140625 0 3.328125 0.90625q1.203125 0.890625 1.546875 2.46875l-2.296875 0.421875q-0.234375 -0.84375 -0.90625 -1.328125q-0.671875 -0.484375 -1.671875 -0.484375q-1.515625 0 -2.40625 0.96875q-0.890625 0.953125 -0.890625 2.84375q0 2.03125 0.90625 3.0625q0.90625 1.015625 2.375 1.015625q0.71875 0 1.453125 -0.28125q0.734375 -0.296875 1.25 -0.703125l0 -1.453125l-2.640625 0zm7.0390625 4.21875l0 -11.453125l2.3125 0l0 11.453125l-2.3125 0zm4.5390625 0l0 -11.453125l2.25 0l4.6875 7.640625l0 -7.640625l2.15625 0l0 11.453125l-2.328125 0l-4.609375 -7.46875l0 7.46875l-2.15625 0z" fill-rule="nonzero"></path><path fill="#000000" fill-opacity="0.0" d="m654.5486 30.094488l96.97638 0l0 32.88189l-96.97638 0z" fill-rule="nonzero"></path><path fill="#000000" d="m664.72046 54.45449l0 -11.453125l3.703125 0q2.109375 0 2.75 0.171875q0.984375 0.25 1.640625 1.125q0.671875 0.859375 0.671875 2.21875q0 1.0625 -0.390625 1.78125q-0.375 0.71875 -0.96875 1.125q-0.578125 0.40625 -1.1875 0.546875q-0.828125 0.15625 -2.40625 0.15625l-1.5 0l0 4.328125l-2.3125 0zm2.3125 -9.515625l0 3.25l1.265625 0q1.359375 0 1.8125 -0.171875q0.46875 -0.1875 0.734375 -0.5625q0.265625 -0.390625 0.265625 -0.90625q0 -0.625 -0.375 -1.03125q-0.359375 -0.40625 -0.921875 -0.5q-0.421875 -0.078125 -1.671875 -0.078125l-1.109375 0zm18.6875 9.515625l-2.515625 0l-1.0 -2.609375l-4.578125 0l-0.953125 2.609375l-2.453125 0l4.46875 -11.453125l2.4375 0l4.59375 11.453125zm-4.265625 -4.53125l-1.578125 -4.25l-1.546875 4.25l3.125 0zm5.4765625 -6.921875l4.234375 0q1.421875 0 2.171875 0.21875q1.015625 0.296875 1.734375 1.0625q0.71875 0.75 1.09375 1.84375q0.375 1.09375 0.375 2.703125q0 1.421875 -0.359375 2.4375q-0.421875 1.25 -1.21875 2.03125q-0.609375 0.578125 -1.625 0.90625q-0.765625 0.25 -2.046875 0.25l-4.359375 0l0 -11.453125zm2.3125 1.9375l0 7.578125l1.734375 0q0.96875 0 1.390625 -0.109375q0.5625 -0.140625 0.9375 -0.46875q0.375 -0.34375 0.609375 -1.109375q0.234375 -0.765625 0.234375 -2.09375q0 -1.328125 -0.234375 -2.03125q-0.234375 -0.71875 -0.65625 -1.109375q-0.421875 -0.40625 -1.078125 -0.546875q-0.484375 -0.109375 -1.890625 -0.109375l-1.046875 0zm9.2421875 -1.9375l4.234375 0q1.421875 0 2.171875 0.21875q1.015625 0.296875 1.734375 1.0625q0.71875 0.75 1.09375 1.84375q0.375 1.09375 0.375 2.703125q0 1.421875 -0.359375 2.4375q-0.421875 1.25 -1.21875 2.03125q-0.609375 0.578125 -1.625 0.90625q-0.765625 0.25 -2.046875 0.25l-4.359375 0l0 -11.453125zm2.3125 1.9375l0 7.578125l1.734375 0q0.96875 0 1.390625 -0.109375q0.5625 -0.140625 0.9375 -0.46875q0.375 -0.34375 0.609375 -1.109375q0.234375 -0.765625 0.234375 -2.09375q0 -1.328125 -0.234375 -2.03125q-0.234375 -0.71875 -0.65625 -1.109375q-0.421875 -0.40625 -1.078125 -0.546875q-0.484375 -0.109375 -1.890625 -0.109375l-1.046875 0zm9.1796875 9.515625l0 -11.453125l2.3125 0l0 11.453125l-2.3125 0zm4.5390625 0l0 -11.453125l2.25 0l4.6875 7.640625l0 -7.640625l2.15625 0l0 11.453125l-2.328125 0l-4.609375 -7.46875l0 7.46875l-2.15625 0zm16.867188 -4.21875l0 -1.921875l4.984375 0l0 4.5625q-0.734375 0.703125 -2.109375 1.25q-1.375 0.53125 -2.796875 0.53125q-1.796875 0 -3.140625 -0.75q-1.328125 -0.765625 -2.0 -2.171875q-0.671875 -1.40625 -0.671875 -3.046875q0 -1.796875 0.75 -3.1875q0.75 -1.390625 2.203125 -2.125q1.09375 -0.578125 2.734375 -0.578125q2.140625 0 3.328125 0.90625q1.203125 0.890625 1.546875 2.46875l-2.296875 0.421875q-0.234375 -0.84375 -0.90625 -1.328125q-0.671875 -0.484375 -1.671875 -0.484375q-1.515625 0 -2.40625 0.96875q-0.890625 0.953125 -0.890625 2.84375q0 2.03125 0.90625 3.0625q0.90625 1.015625 2.375 1.015625q0.71875 0 1.453125 -0.28125q0.734375 -0.296875 1.25 -0.703125l0 -1.453125l-2.640625 0z" fill-rule="nonzero"></path><path fill="#000000" fill-opacity="0.0" d="m118.872635 30.094488l96.220474 0l0 32.88189l-96.220474 0z" fill-rule="nonzero"></path><path fill="#000000" d="m129.04451 54.45449l0 -11.453125l3.703125 0q2.109375 0 2.75 0.171875q0.984375 0.25 1.640625 1.125q0.671875 0.859375 0.671875 2.21875q0 1.0625 -0.390625 1.78125q-0.375 0.71875 -0.96875 1.125q-0.578125 0.40625 -1.1875 0.546875q-0.828125 0.15625 -2.40625 0.15625l-1.5 0l0 4.328125l-2.3125 0zm2.3125 -9.515625l0 3.25l1.265625 0q1.359375 0 1.8125 -0.171875q0.46875 -0.1875 0.734375 -0.5625q0.265625 -0.390625 0.265625 -0.90625q0 -0.625 -0.375 -1.03125q-0.359375 -0.40625 -0.921875 -0.5q-0.421875 -0.078125 -1.671875 -0.078125l-1.109375 0zm18.6875 9.515625l-2.515625 0l-1.0 -2.609375l-4.578125 0l-0.953125 2.609375l-2.453125 0l4.46875 -11.453125l2.4375 0l4.59375 11.453125zm-4.265625 -4.53125l-1.578125 -4.25l-1.546875 4.25l3.125 0zm5.4765625 -6.921875l4.234375 0q1.421875 0 2.171875 0.21875q1.015625 0.296875 1.734375 1.0625q0.71875 0.75 1.09375 1.84375q0.375 1.09375 0.375 2.703125q0 1.421875 -0.359375 2.4375q-0.421875 1.25 -1.21875 2.03125q-0.609375 0.578125 -1.625 0.90625q-0.765625 0.25 -2.046875 0.25l-4.359375 0l0 -11.453125zm2.3125 1.9375l0 7.578125l1.734375 0q0.96875 0 1.390625 -0.109375q0.5625 -0.140625 0.9375 -0.46875q0.375 -0.34375 0.609375 -1.109375q0.234375 -0.765625 0.234375 -2.09375q0 -1.328125 -0.234375 -2.03125q-0.234375 -0.71875 -0.65625 -1.109375q-0.421875 -0.40625 -1.078125 -0.546875q-0.484375 -0.109375 -1.890625 -0.109375l-1.046875 0zm9.2421875 -1.9375l4.234375 0q1.421875 0 2.171875 0.21875q1.015625 0.296875 1.734375 1.0625q0.71875 0.75 1.09375 1.84375q0.375 1.09375 0.375 2.703125q0 1.421875 -0.359375 2.4375q-0.421875 1.25 -1.21875 2.03125q-0.609375 0.578125 -1.625 0.90625q-0.765625 0.25 -2.046875 0.25l-4.359375 0l0 -11.453125zm2.3125 1.9375l0 7.578125l1.734375 0q0.96875 0 1.390625 -0.109375q0.5625 -0.140625 0.9375 -0.46875q0.375 -0.34375 0.609375 -1.109375q0.234375 -0.765625 0.234375 -2.09375q0 -1.328125 -0.234375 -2.03125q-0.234375 -0.71875 -0.65625 -1.109375q-0.421875 -0.40625 -1.078125 -0.546875q-0.484375 -0.109375 -1.890625 -0.109375l-1.046875 0zm9.1796875 9.515625l0 -11.453125l2.3125 0l0 11.453125l-2.3125 0zm4.5390625 0l0 -11.453125l2.25 0l4.6875 7.640625l0 -7.640625l2.15625 0l0 11.453125l-2.328125 0l-4.609375 -7.46875l0 7.46875l-2.15625 0zm16.867188 -4.21875l0 -1.921875l4.984375 0l0 4.5625q-0.734375 0.703125 -2.109375 1.25q-1.375 0.53125 -2.796875 0.53125q-1.796875 0 -3.140625 -0.75q-1.328125 -0.765625 -2.0 -2.171875q-0.671875 -1.40625 -0.671875 -3.046875q0 -1.796875 0.75 -3.1875q0.75 -1.390625 2.203125 -2.125q1.09375 -0.578125 2.734375 -0.578125q2.140625 0 3.328125 0.90625q1.203125 0.890625 1.546875 2.46875l-2.296875 0.421875q-0.234375 -0.84375 -0.90625 -1.328125q-0.671875 -0.484375 -1.671875 -0.484375q-1.515625 0 -2.40625 0.96875q-0.890625 0.953125 -0.890625 2.84375q0 2.03125 0.90625 3.0625q0.90625 1.015625 2.375 1.015625q0.71875 0 1.453125 -0.28125q0.734375 -0.296875 1.25 -0.703125l0 -1.453125l-2.640625 0z" fill-rule="nonzero"></path><path fill="#000000" fill-opacity="0.0" d="m386.46616 30.094488l96.97638 0l0 32.88189l-96.97638 0z" fill-rule="nonzero"></path><path fill="#000000" d="m403.96616 50.23574l2.234375 0.71875q-0.515625 1.875 -1.71875 2.796875q-1.1875 0.90625 -3.03125 0.90625q-2.28125 0 -3.75 -1.5625q-1.46875 -1.5625 -1.46875 -4.265625q0 -2.859375 1.46875 -4.4375q1.484375 -1.59375 3.890625 -1.59375q2.09375 0 3.40625 1.25q0.78125 0.734375 1.171875 2.109375l-2.28125 0.546875q-0.203125 -0.890625 -0.859375 -1.40625q-0.640625 -0.515625 -1.5625 -0.515625q-1.265625 0 -2.0625 0.921875q-0.796875 0.90625 -0.796875 2.953125q0 2.171875 0.78125 3.09375q0.78125 0.921875 2.03125 0.921875q0.921875 0 1.578125 -0.578125q0.671875 -0.59375 0.96875 -1.859375zm3.7578125 -1.4375q0 -1.75 0.515625 -2.9375q0.390625 -0.875 1.0625 -1.5625q0.6875 -0.703125 1.484375 -1.046875q1.078125 -0.453125 2.46875 -0.453125q2.53125 0 4.046875 1.578125q1.53125 1.5625 1.53125 4.359375q0 2.78125 -1.515625 4.359375q-1.5 1.5625 -4.03125 1.5625q-2.546875 0 -4.0625 -1.5625q-1.5 -1.5625 -1.5 -4.296875zm2.375 -0.078125q0 1.9375 0.890625 2.953125q0.90625 1.0 2.296875 1.0q1.375 0 2.265625 -1.0q0.890625 -1.0 0.890625 -2.984375q0 -1.96875 -0.875 -2.9375q-0.859375 -0.96875 -2.28125 -0.96875q-1.4375 0 -2.3125 0.984375q-0.875 0.96875 -0.875 2.953125zm10.5546875 5.734375l0 -11.453125l2.25 0l4.6875 7.640625l0 -7.640625l2.15625 0l0 11.453125l-2.328125 0l-4.609375 -7.46875l0 7.46875l-2.15625 0zm14.1171875 0l0 -9.515625l-3.40625 0l0 -1.9375l9.109375 0l0 1.9375l-3.390625 0l0 9.515625l-2.3125 0zm7.1953125 0l0 -11.453125l8.484375 0l0 1.9375l-6.171875 0l0 2.53125l5.75 0l0 1.9375l-5.75 0l0 3.109375l6.390625 0l0 1.9375l-8.703125 0zm10.6875 0l0 -11.453125l2.25 0l4.6875 7.640625l0 -7.640625l2.15625 0l0 11.453125l-2.328125 0l-4.609375 -7.46875l0 7.46875l-2.15625 0zm14.1171875 0l0 -9.515625l-3.40625 0l0 -1.9375l9.109375 0l0 1.9375l-3.390625 0l0 9.515625l-2.3125 0z" fill-rule="nonzero"></path><path fill="#000000" fill-opacity="0.0" d="m115.91326 30.094488l0 32.88189" fill-rule="nonzero"></path><path stroke="#000000" stroke-width="2.0" stroke-linejoin="round" stroke-linecap="butt" d="m115.91326 30.094488l0 32.88189" fill-rule="nonzero"></path><path fill="#000000" fill-opacity="0.0" d="m754.9283 30.094488l0 32.88189" fill-rule="nonzero"></path><path stroke="#000000" stroke-width="2.0" stroke-linejoin="round" stroke-linecap="butt" d="m754.9283 30.094488l0 32.88189" fill-rule="nonzero"></path><path fill="#000000" fill-opacity="0.0" d="m74.60765 3.7938128l81.41733 0l0 32.88189l-81.41733 0z" fill-rule="nonzero"></path><path fill="#000000" d="m84.560776 16.281311l3.71875 0q1.109375 0 1.640625 0.09375q0.546875 0.09375 0.96875 0.390625q0.4375 0.296875 0.71875 0.78125q0.296875 0.484375 0.296875 1.078125q0 0.65625 -0.359375 1.203125q-0.359375 0.546875 -0.953125 0.828125q0.84375 0.234375 1.296875 0.84375q0.46875 0.59375 0.46875 1.390625q0 0.640625 -0.296875 1.25q-0.296875 0.59375 -0.8125 0.953125q-0.5 0.359375 -1.25 0.4375q-0.46875 0.046875 -2.265625 0.0625l-3.171875 0l0 -9.3125zm1.875 1.5625l0 2.140625l1.234375 0q1.09375 0 1.359375 -0.03125q0.484375 -0.046875 0.765625 -0.328125q0.28125 -0.28125 0.28125 -0.734375q0 -0.421875 -0.25 -0.6875q-0.234375 -0.28125 -0.703125 -0.328125q-0.28125 -0.03125 -1.609375 -0.03125l-1.078125 0zm0 3.6875l0 2.5l1.75 0q1.015625 0 1.28125 -0.0625q0.421875 -0.078125 0.6875 -0.375q0.265625 -0.296875 0.265625 -0.78125q0 -0.421875 -0.203125 -0.71875q-0.203125 -0.296875 -0.59375 -0.421875q-0.390625 -0.140625 -1.671875 -0.140625l-1.515625 0zm7.3595276 -0.53125q0 -1.421875 0.421875 -2.390625q0.328125 -0.703125 0.875 -1.265625q0.546875 -0.578125 1.203125 -0.84375q0.859375 -0.375 2.0 -0.375q2.0625 0 3.296875 1.28125q1.234375 1.28125 1.234375 3.546875q0 2.25 -1.234375 3.53125q-1.21875 1.265625 -3.265625 1.265625q-2.078125 0 -3.3125 -1.265625q-1.21875 -1.265625 -1.21875 -3.484375zm1.9375 -0.0625q0 1.578125 0.734375 2.390625q0.734375 0.8125 1.84375 0.8125q1.125 0 1.84375 -0.796875q0.734375 -0.8125 0.734375 -2.4375q0 -1.59375 -0.703125 -2.375q-0.703125 -0.796875 -1.875 -0.796875q-1.15625 0 -1.875 0.796875q-0.703125 0.796875 -0.703125 2.40625zm8.820175 4.65625l0 -9.3125l3.953125 0q1.5 0 2.171875 0.265625q0.671875 0.25 1.078125 0.890625q0.40625 0.640625 0.40625 1.453125q0 1.046875 -0.625 1.734375q-0.609375 0.6875 -1.828125 0.859375q0.609375 0.359375 1.0 0.78125q0.40625 0.421875 1.078125 1.515625l1.125 1.8125l-2.234375 0l-1.359375 -2.03125q-0.734375 -1.078125 -1.0 -1.359375q-0.265625 -0.28125 -0.5625 -0.390625q-0.296875 -0.109375 -0.9375 -0.109375l-0.390625 0l0 3.890625l-1.875 0zm1.875 -5.375l1.390625 0q1.359375 0 1.6875 -0.109375q0.34375 -0.109375 0.53125 -0.390625q0.1875 -0.28125 0.1875 -0.703125q0 -0.46875 -0.25 -0.75q-0.25 -0.296875 -0.703125 -0.375q-0.234375 -0.03125 -1.375 -0.03125l-1.46875 0l0 2.359375zm7.7345276 -3.9375l3.4375 0q1.15625 0 1.765625 0.1875q0.828125 0.234375 1.40625 0.859375q0.578125 0.609375 0.875 1.5q0.3125 0.890625 0.3125 2.203125q0 1.140625 -0.28125 1.984375q-0.34375 1.015625 -1.0 1.640625q-0.484375 0.46875 -1.3125 0.734375q-0.625 0.203125 -1.671875 0.203125l-3.53125 0l0 -9.3125zm1.875 1.578125l0 6.171875l1.40625 0q0.796875 0 1.140625 -0.09375q0.453125 -0.109375 0.75 -0.375q0.3125 -0.28125 0.5 -0.90625q0.1875 -0.625 0.1875 -1.703125q0 -1.078125 -0.1875 -1.65625q-0.1875 -0.578125 -0.53125 -0.90625q-0.34375 -0.328125 -0.875 -0.4375q-0.390625 -0.09375 -1.546875 -0.09375l-0.84375 0zm7.7657776 7.734375l0 -9.3125l6.890625 0l0 1.578125l-5.015625 0l0 2.0625l4.671875 0l0 1.578125l-4.671875 0l0 2.53125l5.203125 0l0 1.5625l-7.078125 0zm8.889755 0l0 -9.3125l3.953125 0q1.5 0 2.171875 0.265625q0.671875 0.25 1.078125 0.890625q0.40625 0.640625 0.40625 1.453125q0 1.046875 -0.625 1.734375q-0.609375 0.6875 -1.828125 0.859375q0.609375 0.359375 1.0 0.78125q0.40625 0.421875 1.078125 1.515625l1.125 1.8125l-2.234375 0l-1.359375 -2.03125q-0.734375 -1.078125 -1.0 -1.359375q-0.265625 -0.28125 -0.5625 -0.390625q-0.296875 -0.109375 -0.9375 -0.109375l-0.390625 0l0 3.890625l-1.875 0zm1.875 -5.375l1.390625 0q1.359375 0 1.6875 -0.109375q0.34375 -0.109375 0.53125 -0.390625q0.1875 -0.28125 0.1875 -0.703125q0 -0.46875 -0.25 -0.75q-0.25 -0.296875 -0.703125 -0.375q-0.234375 -0.03125 -1.375 -0.03125l-1.46875 0l0 2.359375z" fill-rule="nonzero"></path><path fill="#000000" fill-opacity="0.0" d="m719.209 3.7938125l81.41736 0l0 32.88189l-81.41736 0z" fill-rule="nonzero"></path><path fill="#000000" d="m729.1621 16.281311l3.71875 0q1.109375 0 1.640625 0.09375q0.546875 0.09375 0.96875 0.390625q0.4375 0.296875 0.71875 0.78125q0.296875 0.484375 0.296875 1.078125q0 0.65625 -0.359375 1.203125q-0.359375 0.546875 -0.953125 0.828125q0.84375 0.234375 1.296875 0.84375q0.46875 0.59375 0.46875 1.390625q0 0.640625 -0.296875 1.25q-0.296875 0.59375 -0.8125 0.953125q-0.5 0.359375 -1.25 0.4375q-0.46875 0.046875 -2.265625 0.0625l-3.171875 0l0 -9.3125zm1.875 1.5625l0 2.140625l1.234375 0q1.09375 0 1.359375 -0.03125q0.484375 -0.046875 0.765625 -0.328125q0.28125 -0.28125 0.28125 -0.734375q0 -0.421875 -0.25 -0.6875q-0.234375 -0.28125 -0.703125 -0.328125q-0.28125 -0.03125 -1.609375 -0.03125l-1.078125 0zm0 3.6875l0 2.5l1.75 0q1.015625 0 1.28125 -0.0625q0.421875 -0.078125 0.6875 -0.375q0.265625 -0.296875 0.265625 -0.78125q0 -0.421875 -0.203125 -0.71875q-0.203125 -0.296875 -0.59375 -0.421875q-0.390625 -0.140625 -1.671875 -0.140625l-1.515625 0zm7.359558 -0.53125q0 -1.421875 0.421875 -2.390625q0.328125 -0.703125 0.875 -1.265625q0.546875 -0.578125 1.203125 -0.84375q0.859375 -0.375 2.0 -0.375q2.0625 0 3.296875 1.28125q1.234375 1.28125 1.234375 3.546875q0 2.25 -1.234375 3.53125q-1.21875 1.265625 -3.265625 1.265625q-2.078125 0 -3.3125 -1.265625q-1.21875 -1.265625 -1.21875 -3.484375zm1.9375 -0.0625q0 1.578125 0.734375 2.390625q0.734375 0.8125 1.84375 0.8125q1.125 0 1.84375 -0.796875q0.734375 -0.8125 0.734375 -2.4375q0 -1.59375 -0.703125 -2.375q-0.703125 -0.796875 -1.875 -0.796875q-1.15625 0 -1.875 0.796875q-0.703125 0.796875 -0.703125 2.40625zm8.820129 4.65625l0 -9.3125l3.953125 0q1.5 0 2.171875 0.265625q0.671875 0.25 1.078125 0.890625q0.40625 0.640625 0.40625 1.453125q0 1.046875 -0.625 1.734375q-0.609375 0.6875 -1.828125 0.859375q0.609375 0.359375 1.0 0.78125q0.40625 0.421875 1.078125 1.515625l1.125 1.8125l-2.234375 0l-1.359375 -2.03125q-0.734375 -1.078125 -1.0 -1.359375q-0.265625 -0.28125 -0.5625 -0.390625q-0.296875 -0.109375 -0.9375 -0.109375l-0.390625 0l0 3.890625l-1.875 0zm1.875 -5.375l1.390625 0q1.359375 0 1.6875 -0.109375q0.34375 -0.109375 0.53125 -0.390625q0.1875 -0.28125 0.1875 -0.703125q0 -0.46875 -0.25 -0.75q-0.25 -0.296875 -0.703125 -0.375q-0.234375 -0.03125 -1.375 -0.03125l-1.46875 0l0 2.359375zm7.734558 -3.9375l3.4375 0q1.15625 0 1.765625 0.1875q0.828125 0.234375 1.40625 0.859375q0.578125 0.609375 0.875 1.5q0.3125 0.890625 0.3125 2.203125q0 1.140625 -0.28125 1.984375q-0.34375 1.015625 -1.0 1.640625q-0.484375 0.46875 -1.3125 0.734375q-0.625 0.203125 -1.671875 0.203125l-3.53125 0l0 -9.3125zm1.875 1.578125l0 6.171875l1.40625 0q0.796875 0 1.140625 -0.09375q0.453125 -0.109375 0.75 -0.375q0.3125 -0.28125 0.5 -0.90625q0.1875 -0.625 0.1875 -1.703125q0 -1.078125 -0.1875 -1.65625q-0.1875 -0.578125 -0.53125 -0.90625q-0.34375 -0.328125 -0.875 -0.4375q-0.390625 -0.09375 -1.546875 -0.09375l-0.84375 0zm7.765747 7.734375l0 -9.3125l6.890625 0l0 1.578125l-5.015625 0l0 2.0625l4.671875 0l0 1.578125l-4.671875 0l0 2.53125l5.203125 0l0 1.5625l-7.078125 0zm8.8897705 0l0 -9.3125l3.953125 0q1.5 0 2.171875 0.265625q0.671875 0.25 1.078125 0.890625q0.40625 0.640625 0.40625 1.453125q0 1.046875 -0.625 1.734375q-0.609375 0.6875 -1.828125 0.859375q0.609375 0.359375 1.0 0.78125q0.40625 0.421875 1.078125 1.515625l1.125 1.8125l-2.234375 0l-1.359375 -2.03125q-0.734375 -1.078125 -1.0 -1.359375q-0.265625 -0.28125 -0.5625 -0.390625q-0.296875 -0.109375 -0.9375 -0.109375l-0.390625 0l0 3.890625l-1.875 0zm1.875 -5.375l1.390625 0q1.359375 0 1.6875 -0.109375q0.34375 -0.109375 0.53125 -0.390625q0.1875 -0.28125 0.1875 -0.703125q0 -0.46875 -0.25 -0.75q-0.25 -0.296875 -0.703125 -0.375q-0.234375 -0.03125 -1.375 -0.03125l-1.46875 0l0 2.359375z" fill-rule="nonzero"></path></g></svg>

